				<svg version="1.2" baseProfile="tiny" id="Layer_1" xmlns="http://www.w3.org/2000/svg" xmlns:xlink="http://www.w3.org/1999/xlink" x="0px" y="0px" viewBox="0 0 246.3 71.4" xml:space="preserve" width="120" height="200">
				<metadata><!--?xpacket begin="&#65279;" id="W5M0MpCehiHzreSzNTczkc9d"?-->
				<x:xmpmeta xmlns:x="adobe:ns:meta/" x:xmptk="Adobe XMP Core 5.6-c014 79.156821, 2014/08/29-03:07:50        ">
				   <rdf:rdf xmlns:rdf="http://www.w3.org/1999/02/22-rdf-syntax-ns#">
				      <rdf:description rdf:about="" xmlns:dc="http://purl.org/dc/elements/1.1/" xmlns:xmp="http://ns.adobe.com/xap/1.0/" xmlns:xmpgimg="http://ns.adobe.com/xap/1.0/g/img/" xmlns:xmpmm="http://ns.adobe.com/xap/1.0/mm/" xmlns:stref="http://ns.adobe.com/xap/1.0/sType/ResourceRef#" xmlns:stevt="http://ns.adobe.com/xap/1.0/sType/ResourceEvent#" xmlns:illustrator="http://ns.adobe.com/illustrator/1.0/" xmlns:xmptpg="http://ns.adobe.com/xap/1.0/t/pg/" xmlns:stdim="http://ns.adobe.com/xap/1.0/sType/Dimensions#" xmlns:xmpg="http://ns.adobe.com/xap/1.0/g/" xmlns:pdf="http://ns.adobe.com/pdf/1.3/">
				         <dc:format>image/svg+xml</dc:format>
				         <dc:title>
				            <rdf:alt>
				               <rdf:li xml:lang="x-default">Print</rdf:li>
				            </rdf:alt>
				         </dc:title>
				         <xmp:metadatadate>2017-10-26T14:31:14+03:00</xmp:metadatadate>
				         <xmp:modifydate>2017-10-26T14:31:14+03:00</xmp:modifydate>
				         <xmp:createdate>2017-10-26T14:31:14+03:00</xmp:createdate>
				         <xmp:creatortool>Adobe Illustrator CC 2014 (Windows)</xmp:creatortool>
				         <xmp:thumbnails>
				            <rdf:alt>
				               <rdf:li rdf:parsetype="Resource">
				                  <xmpgimg:width>256</xmpgimg:width>
				                  <xmpgimg:height>76</xmpgimg:height>
				                  <xmpgimg:format>JPEG</xmpgimg:format>
				                  <xmpgimg:image>/9j/4AAQSkZJRgABAgEASABIAAD/7QAsUGhvdG9zaG9wIDMuMAA4QklNA+0AAAAAABAASAAAAAEA
				AQBIAAAAAQAB/+4ADkFkb2JlAGTAAAAAAf/bAIQABgQEBAUEBgUFBgkGBQYJCwgGBggLDAoKCwoK
				DBAMDAwMDAwQDA4PEA8ODBMTFBQTExwbGxscHx8fHx8fHx8fHwEHBwcNDA0YEBAYGhURFRofHx8f
				Hx8fHx8fHx8fHx8fHx8fHx8fHx8fHx8fHx8fHx8fHx8fHx8fHx8fHx8fHx8f/8AAEQgATAEAAwER
				AAIRAQMRAf/EAaIAAAAHAQEBAQEAAAAAAAAAAAQFAwIGAQAHCAkKCwEAAgIDAQEBAQEAAAAAAAAA
				AQACAwQFBgcICQoLEAACAQMDAgQCBgcDBAIGAnMBAgMRBAAFIRIxQVEGE2EicYEUMpGhBxWxQiPB
				UtHhMxZi8CRygvElQzRTkqKyY3PCNUQnk6OzNhdUZHTD0uIIJoMJChgZhJRFRqS0VtNVKBry4/PE
				1OT0ZXWFlaW1xdXl9WZ2hpamtsbW5vY3R1dnd4eXp7fH1+f3OEhYaHiImKi4yNjo+Ck5SVlpeYmZ
				qbnJ2en5KjpKWmp6ipqqusra6voRAAICAQIDBQUEBQYECAMDbQEAAhEDBCESMUEFURNhIgZxgZEy
				obHwFMHR4SNCFVJicvEzJDRDghaSUyWiY7LCB3PSNeJEgxdUkwgJChgZJjZFGidkdFU38qOzwygp
				0+PzhJSktMTU5PRldYWVpbXF1eX1RlZmdoaWprbG1ub2R1dnd4eXp7fH1+f3OEhYaHiImKi4yNjo
				+DlJWWl5iZmpucnZ6fkqOkpaanqKmqq6ytrq+v/aAAwDAQACEQMRAD8A9U4q7FXYq7FXYq7FXYq7
				FXYq7FXYq7FXYq7FXYq7FXYq7FXYq7FXYq7FXYq7FXYq7FXYq7FXYq7FXm35u3d9c32ieW4rmW0s
				NSi1G91B4WaN5o9OtxItt6iMrKsrSfHxNeI64q8g8tTy2Gg6p5s0u3i0fVfL1vpOoqLNZ7UXkeoB
				Wmtbi1kuJxPEysPTn+Es34FX09d6rpdmwW7vILdj0EsiIf8AhiMCq1tc21zCs9tKk8L14SxsHU0N
				DRlqOoxVezKilmIVVFWY7AAdSTiqimoWEjhEuYndtlVXUk/IA4qr4qluq+ZvLekV/S2rWen0pX61
				cRQ9en94y4ql1t+ZP5eXU3o2/mfSpZi3FY1vbcsxAr8I5/F9GKsiR0dFdGDIwBVgagg7ggjFW8VS
				7/Evlz/q62f/AEkRf81Yq7/Evlz/AKutn/0kRf8ANWKuHmTy6SANUtCTsAJ4v+asVRl3d2tnbSXV
				1KkFvCpaWaQhVVR3JOAkAWWePHKchGIuReX+YPz80e1laHRbJ9QK7fWZW9GKviq0Z2Hz45jS1PcH
				qtJ7KZZi8suDyG5/V97Hj/zkF5iqaaZZgdgTL/zVlf5mXl+Pi7H/AEI4f58vsTXR/wDnIOB5Vj1j
				SzFGSA09q/Onv6bgf8SyUdSeocTU+yJAvFO/Ij9P7Hqeja3pWtWCX+mXKXNq+wdeoPdWU0KsPA5l
				RmJCw8nqdLkwT4Mg4ZI1mVVLMQFAqSdgAMk0IIa7ojTi3XULYzswRYhNHzLE0Cha1qcVR2KqN1fW
				Voge7uI7dD0aV1Qdh1YjxxVbZ6jp96GNndQ3ISgcwyLJxr0rxJpiqIxVKNb83+VNCoNa1iz05jQq
				lzPHE5r4KxDH6BiqW235q/lrczLDD5o0xpG2VTdRLU+A5MMVZPFLHLGssTrJG4DI6kFSD0II64qu
				xVCXWr6TZyend3sFvIdwksqIfuYjFVH/ABL5c/6utn/0kRf81Yq7/Evlz/q62f8A0kRf81YqlXnP
				yZpvnDTbQi7e0vLR/rOlarbcHaNnQqdmDJJFIjUdDswxVjVv+T95eahp83mbWbfUbHTEijttPsdN
				t9PjeO3YPBFOyNK7wxsoYQqVSoG2Kvie8vLu9upbu7me4up2LzTSMWdmPUsx3OLJ9s/844f+SY8v
				f9Hn/UdPigvLf+cu/N87X2k+U7eZlgjiN/fxKSFdnbhAG8eIRjT3GKhiX/OLflw6p+Zqag6crfRb
				aW6LHp6sg9GMfP8AeMw/1cVL3f8A5yJ0jzlfeRPX8rXF3Hc2cwkvbWyd1kntmUq4pGQz8G4tx8K4
				ofKen/ld+ZWrVntfLmpTBzyM0kEiKxO9ecgUH78WVpf5k8lebPLLwrr+lXGnfWATA0yEK/HqFYVU
				kV3FcVZ7+QX5q6v5X82WGjXN08vlzU5ltprVzVIZJjxSaOv2KORyp1Fe9MUF9o4ofmtiyR1roWuX
				cIntdOubiBqhZYoZHQ0NDRlBGKp75U8g+dNT1+wt7TRb1mNxFzkaCVY0XmCWkcrxVQB1OKLe+fnN
				52uNV1uTQ7WQrpmmuUlVTtLcLs5an8h+EfTmBnycRroH0T2b7MGLEMsh65/ZH9vNivkvyjfeadbT
				TbZvSjAMlzcEVEcQIBNO5NaAZXCBkaDtu0u0IaTEZy3PIDvL2uD8jfI0dsIpEuZpab3DTENX2CgJ
				+GZf5aPeXhpe1GrMrHCB3V+C8m/Mf8v5/KOoxCOVrjTLsE2s7CjArTlG9NuQr175jZMfCXr+xu1x
				rIGxU48x+kKX5c+c7nyx5ghlMh/Rlyyx38NfhKE09Sn8yVqPuwY58Jtn2z2bHVYSK9cd4n9HxZd/
				zltf3kHkDTYLedo4LvUVW4RDQSIsMjBWp1XkAadK0zZPlj5t/LL/AMmT5T/7bOn/APUVHil+geLF
				8K/nxeXVz+bHmL6xM8ohuPShDsSEjVFCqtegGKQ9h/5w6/45Pmf/AIz2v/EJMVKd/wDORH503nlG
				GPy35elEevXkfq3N4ACbaBiQvCtR6j0NP5Rv1IOKh8w6B5d81edfMAstNim1TVromSaWRixpX4pZ
				pXOwFd2Y/jillnm7/nH38yPK+iy6ze2sFzY2687prSX1WiTuzqQh4r3K1p16Yotb+T35xa35F1m3
				gluHn8sTyAahYNVlRWNGmhG/F1ryoPtdD2IVIfbwuYDb/WQ4aAp6gkG6lKcuQp1FMUPzhvby6vbu
				a8u5Wnurh2lnmc1ZnY1Zifc4smSf8qr/ADC/Qf6d/QVz+iPq31767ReH1b0/V9XrXjw+LFbYpir9
				BPyy/wDJbeU/+2Np/wD1Cx4sWS4q/NbFk9//AC1/5yR0LyZ+Xem+XW0i6vdSsBcVcPHHAxmuJZl+
				Krv0kAPwYop495w806z5081XWtXy877UJFWO3hDMFAASKKNdzsAAPE++KX1h/wA44/lpqPk3yrc3
				esRGDWNadJZbdvtwwRAiKN/BquzMO1adRixL1LUdS07TLOW91G6is7OEcpbid1jjUf5TMQBirz3U
				/wDnI38obBzH+mzdSL1W2gnkH0PwCH6GxV5Z+dv55/lz5z8j3Oh6dDey6l60M1jPLAiRI8cg5sWL
				8hWIuoovfFIDwHRXZNYsHQlWW4iKkdQQ4pikv0cxYvzWxZPtb/nGX/yUGlf8Zrv/AKiHxYl6deXA
				trSe4IqIY2kI8eKk/wAMEjQJZ44cUhHvL49nmlnnknlblLKxeRj3ZjUn781T7NCIiAByD2//AJx8
				sI10bVdQ4/vJrlbfl7RIHp/yVzM0w5l4T2uyk5YQ6CN/M/sesZlPIvPfzyso5/IzTsBztLmGRG7j
				kTGf+J5j6kel6P2XymOrr+dEj9P6HzvmE+kM3/5yHvXvvyZ8m3TmsjzwiRvFltZFY/SRmxwm4B8j
				7SxDHqckR/OP3vD/AMsv/Jk+U/8Ats6f/wBRUeWOE/QPFi+D/wA7/wDybHmb/mMP/EFxSHs//OHX
				/HJ8z/8AGe1/4hJipeH/AJv6zLrH5neZLyRi4W+mt4ia/wB3bN6EdK9PhjGKQy/8jPzd8pfl5Z6m
				2paZdXepahIgFxbiIhYI12T43Uj42JNPbFBD0y8/5y08g3lpPaXGh6k9vcRtFMhFvRkdSrD+87g4
				rT5VNK7dO2KX3V5G1Z3/ACQ0zUZWJeDQgWdqkn6vblamm5+xixfCmLJ93a9Z/UvyK1Gz48fq3lea
				HiBSnp6ey0p26YsXwjiyfoJ+WX/ktvKf/bG0/wD6hY8WLJcVfmtiyfRH5Wf845eT/OP5daZ5hvNQ
				1C21K/FxzWF4DAphuZIVojRF/sxivx9cUW8l/ND8utR8g+aZNEu5Rcwsiz2V4FKCWFyQDxJPFgVI
				YVO+KQ91/wCcWfzO1TVfrnlDWbl7qS0h+taXPKxaQQqwWSEsd2Cl1K1PSvYbKC8u/wCchPzD1TzN
				56v9LMzLouh3ElpZ2oNEMsJMcszfzMzhgD2Xp3qqEb+S35Bt5/0641rUNQbT9JhmNtEsKB5pZFVW
				ehY8UVeY3oanFSWWfmn/AM46eTPJv5dat5hsr3ULrUbIQCIXEkPo/vrqKIkokSN9hz+1itvANI/4
				61l/xni/4mMUl+juLF+a2LJ9rf8AOMv/AJKDSv8AjNd/9RD4sS9K1OF5tNu4U3eWGRFHuykDIzFx
				LbhkIziT0IfH2ax9me9f84/TqfK2oQftJfM5+Twxgf8AEMzNMdiHz72tj/hET/Q/Sf1vUMyXlWB/
				nbKieQblW6yzQIvzDhv1LmPqT6XoPZmN6weQP3PnHMJ9LZl+f1s9t+SXkuJxRvXhcg9R6ltI9P8A
				hs2GEVAPk3a0xLVZCP5x+zZ4p+WX/kyfKf8A22dP/wCoqPLXXv0DxYvg/wDO/wD8mx5m/wCYw/8A
				EFxSHs//ADh1/wAcnzP/AMZ7X/iEmKl4H+ZFnLZ/mF5ltpRR49TvN+lVM7FW+lSDikPRPyN/JXyr
				+Yeg6hd6jqV3a6hY3QiaC2MXH0XjVo3PNXarNzH0YoJek/8AQoPkj/q86n99v/1TxW3f9Cg+SP8A
				q86n99v/ANU8Vtk35jfoz8vfyLvtHiuXdEsW0qweUj1ZHuQY/wBkAVCszbDoMUPjny5pEus+YNN0
				mIEyahdQ2y8ev72QJX6K4sn3l+Zaqn5aealUBVXRb8Ko2AAtZKADFi/PzFk/QT8sv/JbeU/+2Np/
				/ULHixZLir81sWT7f/5xw/8AJMeXv+jz/qOnxQWG/wDOXPlj635W0vzFElZdLuDb3DAb+jdAUJ9l
				kjUf7LFQ8D/KHzP/AIa/MfQtUZ+FuLhbe7NaD0bj9zIT/qh+X0YpKJ/Ozyte+XfzL1yG4iZLe9up
				b6ykIPF4blzIOJ78CxQ+4xUJ7+T/AOfmofl9p1xpE2mrqmlTzG4RRL6MsUjKFfi3GQMpCD4aDfvv
				igh35j/np51/MSzn0i2shYaEq/WLqxtuU7skJD855uK/AhAOyqK9e2K08ttp2t7mKdQC0LrIoPQl
				TXfFL7e/I/8ANDUPzC8vX+oahawWl1Z3Zt/Sty3ExmJHViHLGtS2LF8OYsn2t/zjL/5KDSv+M13/
				ANRD4sS9TxV8u/mR5Zm8v+a7y3KEWlw7XFk9NjFISeI/1D8J+WazJDhNPqvY2tGo08T/ABDY+8fr
				5pj+VHnuDyvq80d/y/Rl+FWd1BJjdCeEnEdR8RBpksWThPk43b/ZR1WMGH95Dl5+T3qLzf5Ultxc
				JrFkYacuf1iIUHvVtvpzN8WPeHz+XZ+oB4Tjnf8AVLxf84/zAsNfmt9J0qT1tPs3Ms1wAQsk1OI4
				V6qik7965iZsvEduT2/s52TPTg5MgqctgO4ftYZ5R8uXfmLX7XS7cGkrBriQdI4VPxufkOnvlUYm
				RoO77Q1kdNhlkl05eZ6Bm/8AzlzFHD5D0OGJeMceoqiKOgVbeQAZswKFPkZkSbPMvmHy/rE2i69p
				uswIss+mXUF5FG9eDPbyLIqtShoSu+FXtf8A0N/5z/6smnffP/zXiinjnm7zJdeZvMuoa9dRJBca
				hL60kUVeCkgCi8iT2xSyr8rvzn1v8u7bUINNsba8XUXjkkNz6lVMQYDjwZevLFFPQP8AnKH8rNQt
				9bfzvpcDTadeqi6sIwSYJ0AQSsB0SRQu/Zhv9oYqHjvkvz35n8maqdT0C7NtO6+nPGyh4pUrXjIj
				bH2PUdjil6d/0Nx+ZXDj+j9HrSnP0LmtfH/eilfoxRTM/wAkf+chPMvmjzovl/zKLYx38bmwlhj9
				IpNEDJwO5qHQHrvUDxxUh5L+fPm/zJrn5h6tY6rKws9Hu57XTrMbRxxI/FXAHVpFAYsd+3QDFQz/
				AP5xh/KfUJ9Wi886vAYdPtVb9Do4IM0rgoZgP5EUnie7dOmKl79+Zv8A5LbzZ/2xtQ/6hZMUPz7x
				ZP0E/LL/AMlt5T/7Y2n/APULHixZLiry1f8AnGf8n1YE6TKwBqVN3c0PsaSA4rb0XRdF0vRNLttK
				0q3W00+0T07e3SpCrUnqSSak1JJxVrXND0rXdJudJ1a3W7068XhcW7kgMtQRupDAggEEGoxV50f+
				cZvyfr/xyph/0d3H/NeK2zLzV+X/AJT816TFpmvWK3sFuKW8rFhNGaAVSVSHBNN99++KvP0/5xV/
				KtZQ5F+yg19I3I4keGyBqfTits/0P8u/JOh6LcaLpmj28GnXcZhvIuPNp0ZeLCaR+TvUH9o4qwGX
				/nFb8qnnaRUv40LVEK3NUA/lBZGenzauK2z/AMleQPK3kvT5LDy9aG1hncSXDNI8ryOBQMzOW7eF
				BirDl/5xm/J8MCdJmYA7qbu5ofucYrb0PQNA0fy/pFvpGj2q2enWoKwW6EkKGYs27FmJLMSSTXFU
				fiqSebPKGjeaNN+palGapVre4TaSJj3U+/cHY5XkxiQ3c7QdoZdLPjgfeOheLa7+Rnm6ylc6aYtU
				thUoUZYpaf5SSELX5McxJYJDze40vtRppj95cJfMfMfqSE/lj59D8P0LPWtP2Kffyplfhy7i7D+W
				9HX95FOtF/I/znfSr9eWLTID9p5XWR6f5KRlqn2LDJxwSLg6n2n0sB6LmfLb7T+17P5N8j6L5Usm
				gsFMlxLT6zeSU9SQjtt9lR2UZmY8Qi8T2j2pl1crnyHIdA1518g+WPOlhBYeYbd7m2tpfXiRJHiI
				k4lK1QqTsxyx1rDv+hZfyg/6tU3/AEl3H/NeK27/AKFl/KD/AKtU3/SXcf8ANeK2oX3/ADjV+UUV
				lcSppcweON2U/Wrjqqkj9vFbfGcMUk0qQxKXlkYIiDqWY0AH04sn6SuiOjI6hkYEMpFQQdiCDixe
				ca//AM48/lRrNw1zJo/1KdyS7WMjwKSd/wC6U+kPoXFUot/+cV/ypifk8d9ONvgkuaDb/UVD+OK2
				zfyt+WPkLys6y6Hotva3CiguiDLPT/jLKXcV9jiqF1D8ofy+1PzZL5p1LSo73VZhGG9cl4eUShVY
				w/YZuKgfED0xVmKqqKFUBVUUVRsAB0AGKobVtMs9V0u80u9QyWd/BJa3KAlS0UyFHAYUIqrHcYq8
				5h/5xq/J6OVXOjySBTXg93c8T86SDFbemWttb2ttDa20axW8CLFDEooqog4qoHgAKYqqYqla+a/K
				7Ti3XWLEzlvTEIuYeZetOPHlWtdqYqrX+u6Jp8qw3+oW1nM45JHPNHEzLWlQHIJFcVV7m+sra1N3
				c3EcNooDNcSOqxgHoeRNN64qp2msaTeWTX1peQz2aAmS4jkVo1CircmBoKDrXFVGz8yeXb64W2st
				Us7q4apWGGeKRyAKmiqxOwxVXk1XS47ee5kvIEt7ZzHczNIgSNwQCrsTRSCRscVW6hrOj6b6f6Rv
				rey9WvpfWJUi5cacuPMrWnIVxVWivbOa1F3DPHJalS4uEdWjKjq3MHjTFVDTdc0bVPU/Rt9Beeka
				SehIsnH58SeuKrR5h0Br36gup2hvgxjNoJ4/V5jqvp8uVfamKos3VsLkWplT6yyGUQch6hjBCl+P
				XiCQK4qonVtKFk98b2AWUZKyXXqp6SlW4kM9eIo23Xriq2z1rRr2GWezv7e5ggFZpYZUkRBSvxMp
				IXYd8VVP0lp3p28v1qH0rwqto/qLxlLDkojNaOSBUUxVQvfMGhWN1HaXuoW9tdS09OCWVEc12Hwk
				13PTFUV9btfrRs/Wj+tiP1jb8h6npk8efCvLjyFK4qtS/sXtGvEuYmtEDlrhXUxgRkh6uDx+EqQf
				DFVLTda0jVEd9NvYLxYzxkMEiycT78SaYqpR+ZPLst2LKPVbN7wuYxbLcRGXmNivANyr7UxVMcVS
				6bXfL5vjpM1/bfXpPgNkZU9Q8h9nhWtSD0xVi1l5I/JnQdYjMGnaPZ6vEytCkhi9dHO6FUkYsG8C
				BXFWX6hrGk6aEbUb23shLURm4lSIMR148yK0riq6HU9OmsTfw3UMlgFZzdpIrQ8UqHb1AeNF4mu+
				2KqNhr+g6jMYNP1K1vJlUu0VvNHKwUEAsVRiaVI3xV155g0Oyu4rO81C3t7uanpQSyortU0Hwk13
				OwxVq98x+XrCc299qlpa3AAJhnnijeh6HizA74qvutc0S0tobq61C2gtrkBreeWaNEkBHIFGYgNU
				Gu2Kq9te2d1bLdW08c9s4JWeN1eMgdSGUkYqh9O17RNTeRNOv7e8eH+9WCVJCte54k7e+Ko7FXYq
				8xaKX/lX2jrwbkNbBK0NafpKU1woTrXdP1O+88tb2UsMCTaOY55biEzrwa4NQqh415d/iqPbFLvM
				2lxaToXlu3o82m6PfWhvHKliIYo2QSuF/ZVypO2Kq/lCSG78y+ZdTsvj0q7a0FvOoIjlljiYTMmw
				r1UFh1xVE+VVYa15nJBAbUEKk9x9Wi6Yq8/16y1PUdN82wGN49L06+urskAj6xcyMqxoKdViWrn3
				K4oZd56maDzJ5fm+vJpqLDqAe7kiEyAMsHwlCQDyxCUst7O9m/KbUbS2t5JZA8/BkVo2uovrHNpo
				46BlEqVouKE00u903VPPVre6IA9nb6W8N3PGpWMcpUMMLbAcl4t8PbFLFr4uby/h+sid4/MDTxaE
				sJM09JU+JZhVkHfpT4euKGRebRq8nnays9MDJPqGmzWjXija3jaeN5Jf9YIhC/5RGKUouLEW35Pa
				zZwxsEhubiOJKEngt7RfnsMUM20Xy9d22q3ur6jcxXF9exRwultCYIVSIsR8LPKzseX2mPtgSxny
				Rpklxrj8XE+geXmnj0SZa8Xa7PNtyBy9GM+n9O2FCN0nVdL0fzJ5hg1h/q99fXiTWrSKx9e39JEi
				EZAPLiwYUG4xS7UrPVbj8y2/R92LFhosfKZoRMGH1p/hoWUA98VSsWl6/wCUTxBHmkS4le5jRDzk
				ij1Jnloo8UBNPDFU40e7s9T8/wA2o6S4m02PSlt7meNSIzcevyjStACyRg18OmKpV5C1IW+oXVnL
				qyQiTUrymlNAebl5G4sJq7b79MSh6PgSwjyTq2l6elxo2oSejrzahcNPBIrGSV5pmaOVTx+JWjK/
				F0wqoXmg6jrXmTzTpyXEVtp90tkl0zwGWVh6P+6WLqinruVbFCv55mNlrXluVb0aekP1tTeSR+uE
				rEqiq1FeXTEKreades4/y6vLiS9W9N9bTWdvcIhj9aaVXjose9KUP3YpQej63os/nrS4bS6WUDR5
				bRCOW8qSRScBUDfhGzfRiqtomqaZpPmHzDb6w/oaje34ltmkRiZrYxosAjIB58CGFB0xVNPOKs1z
				5b4gmmsQk07D0J98CoDz7K8OreXJxdrYCOe55XskfqpGDbOPiUkA8q8evfCFSvSrO8n/AC48xW1g
				ryTyy3voXKo0f1sOAzSxxUHEPUoFXbbbFCJ0u907U/NPlyXRCGh0/T549RZFKiON0jEMLkjZg6k8
				cUs9wK7FXYq7FXYq7FXYq7FXYq7FXYq7FXYq7FXYq7FXYq7FXYq7FXYq7FXYq7FXYql+rfof1NP/
				AEjTn9bT9H15f71cH4049+HPrtirr79D/pXTfrfD9I8pv0byry5emfV402/u+tcVTDFXYq7FXYq7
				FXYq7FX/2Q==</xmpgimg:image>
				               </rdf:li>
				            </rdf:alt>
				         </xmp:thumbnails>
				         <xmpmm:instanceid>xmp.iid:91873a38-cfa1-7d48-9b6e-507f58787f1e</xmpmm:instanceid>
				         <xmpmm:documentid>xmp.did:91873a38-cfa1-7d48-9b6e-507f58787f1e</xmpmm:documentid>
				         <xmpmm:originaldocumentid>uuid:5D20892493BFDB11914A8590D31508C8</xmpmm:originaldocumentid>
				         <xmpmm:renditionclass>proof:pdf</xmpmm:renditionclass>
				         <xmpmm:derivedfrom rdf:parsetype="Resource">
				            <stref:instanceid>xmp.iid:f4c0c50a-2d66-0648-a16d-868885948dfa</stref:instanceid>
				            <stref:documentid>xmp.did:f4c0c50a-2d66-0648-a16d-868885948dfa</stref:documentid>
				            <stref:originaldocumentid>uuid:5D20892493BFDB11914A8590D31508C8</stref:originaldocumentid>
				            <stref:renditionclass>proof:pdf</stref:renditionclass>
				         </xmpmm:derivedfrom>
				         <xmpmm:history>
				            <rdf:seq>
				               <rdf:li rdf:parsetype="Resource">
				                  <stevt:action>saved</stevt:action>
				                  <stevt:instanceid>xmp.iid:b0bb1a5d-b79f-ca48-88fc-122a4dce8eda</stevt:instanceid>
				                  <stevt:when>2016-10-28T16:13:37+03:00</stevt:when>
				                  <stevt:softwareagent>Adobe Illustrator CC 2015 (Windows)</stevt:softwareagent>
				                  <stevt:changed>/</stevt:changed>
				               </rdf:li>
				               <rdf:li rdf:parsetype="Resource">
				                  <stevt:action>saved</stevt:action>
				                  <stevt:instanceid>xmp.iid:91873a38-cfa1-7d48-9b6e-507f58787f1e</stevt:instanceid>
				                  <stevt:when>2017-10-26T14:31:14+03:00</stevt:when>
				                  <stevt:softwareagent>Adobe Illustrator CC 2014 (Windows)</stevt:softwareagent>
				                  <stevt:changed>/</stevt:changed>
				               </rdf:li>
				            </rdf:seq>
				         </xmpmm:history>
				         <illustrator:startupprofile>Print</illustrator:startupprofile>
				         <xmptpg:hasvisibleoverprint>False</xmptpg:hasvisibleoverprint>
				         <xmptpg:hasvisibletransparency>False</xmptpg:hasvisibletransparency>
				         <xmptpg:npages>1</xmptpg:npages>
				         <xmptpg:maxpagesize rdf:parsetype="Resource">
				            <stdim:w>86.905030</stdim:w>
				            <stdim:h>25.183335</stdim:h>
				            <stdim:unit>Millimeters</stdim:unit>
				         </xmptpg:maxpagesize>
				         <xmptpg:platenames>
				            <rdf:seq>
				               <rdf:li>Black</rdf:li>
				               <rdf:li>PANTONE Red 032 C</rdf:li>
				            </rdf:seq>
				         </xmptpg:platenames>
				         <xmptpg:swatchgroups>
				            <rdf:seq>
				               <rdf:li rdf:parsetype="Resource">
				                  <xmpg:groupname>Default Swatch Group</xmpg:groupname>
				                  <xmpg:grouptype>0</xmpg:grouptype>
				                  <xmpg:colorants>
				                     <rdf:seq>
				                        <rdf:li rdf:parsetype="Resource">
				                           <xmpg:swatchname>PANTONE Red 032 C</xmpg:swatchname>
				                           <xmpg:type>SPOT</xmpg:type>
				                           <xmpg:tint>100.000000</xmpg:tint>
				                           <xmpg:mode>LAB</xmpg:mode>
				                           <xmpg:l>55.294117</xmpg:l>
				                           <xmpg:a>72</xmpg:a>
				                           <xmpg:b>43</xmpg:b>
				                        </rdf:li>
				                     </rdf:seq>
				                  </xmpg:colorants>
				               </rdf:li>
				            </rdf:seq>
				         </xmptpg:swatchgroups>
				         <pdf:producer>Adobe PDF library 10.01</pdf:producer>
				      </rdf:description>
				   </rdf:rdf>
				</x:xmpmeta>
				<!--?xpacket end="w"?-->
					</metadata>
				<g>
					<path fill-rule="evenodd" d="M169.6,52.2v-9.8h-4.1V15.9h-2.7c-5.7,0-6.9,0.7-6.9,3.7v22.8h-10.2V15.9H143c-5.7,0-6.9,0.7-6.9,3.7
						v29.2h25.7v7.1h0.8C168.3,55.9,169.6,55.2,169.6,52.2z"></path>
					<path fill-rule="evenodd" fill="#F7323F" d="M131.8,24.5c-0.7-2.5-1.8-4.7-3.3-6.6c-1.6-1.9-3.6-3.4-6.1-4.5
						c-2.5-1.1-5.6-1.7-9.3-1.7l-0.2,0c-3.5,0-6.6,0.6-9.1,1.7c-2.5,1.1-4.6,2.6-6.2,4.5c-1.6,1.9-2.8,4.1-3.5,6.6
						c-0.8,2.5-1.1,5.1-1.1,7.9c0,2.8,0.3,5.5,1,8c0.7,2.5,1.8,4.7,3.3,6.5c1.6,1.9,3.6,3.3,6.1,4.4c2.5,1.1,5.6,1.6,9.3,1.6l0.2,0
						c3.6,0,6.7-0.6,9.3-1.7c2.6-1.1,4.7-2.6,6.3-4.5c1.6-1.9,2.8-4.1,3.5-6.6c0.7-2.5,1.1-5.1,1.1-7.9C132.8,29.6,132.4,27,131.8,24.5z
						 M121.5,37.7c-0.2,1.7-0.7,3.2-1.3,4.5c-0.6,1.3-1.5,2.3-2.7,3.1c-1.2,0.8-2.7,1.1-4.5,1.1l-0.3,0c-1.9,0-3.4-0.4-4.5-1.1
						c-1.2-0.7-2.2-1.7-2.8-2.9c-0.7-1.2-1.2-2.7-1.4-4.4c-0.2-1.7-0.4-3.5-0.4-5.5c0-1.7,0.1-3.5,0.4-5.2c0.3-1.7,0.8-3.2,1.5-4.5
						c0.7-1.3,1.7-2.4,2.9-3.2c1.1-0.8,2.6-1.2,4.3-1.2l0.3,0c1.9,0,3.4,0.4,4.5,1.2c1.1,0.8,2,1.9,2.7,3.2c0.6,1.3,1.1,2.8,1.3,4.5
						c0.2,1.7,0.4,3.4,0.4,5.2C121.9,34.2,121.7,36,121.5,37.7z"></path>
					<path fill-rule="evenodd" d="M201.7,34.5v-3.4c0-1.5-0.1-3.1-0.4-5c-0.2-1.9-0.9-3.6-1.9-5.3c-1-1.7-2.5-3-4.5-4.2
						c-2-1.1-4.8-1.7-8.3-1.7h0c-3.3,0-5.9,0.6-8,1.7c-2.1,1.1-3.7,2.6-4.9,4.2c-1.2,1.7-2,3.6-2.5,5.6c-0.4,2.1-0.7,4-0.7,5.8
						c0,2.3,0.2,4.4,0.7,6.5c0.5,2,1.3,3.8,2.5,5.4c1.2,1.6,2.9,2.8,5,3.7c2.1,0.9,4.7,1.3,7.8,1.4l0.3,0c5.6,0,9.6-1.3,11.8-2.5
						c-1.3-4.8-2.3-5.8-5.1-5.1c-0.1,0-1.8,0.5-5.3,0.5c-0.6,0-1.2,0-1.7-0.1c-2.1-0.2-3.6-0.8-4.6-1.9c-1.3-1.3-1.9-3.2-1.9-5.8h6.5
						H201.7z M180.8,25.8c0.3-0.9,0.7-1.7,1.2-2.4c0.5-0.7,1.2-1.2,2-1.6c0.7-0.4,1.6-0.6,2.7-0.6c0.1,0,0.2,0,0.4,0
						c2.3,0,3.8,0.7,4.7,2.1c0.8,1.4,1.3,3.2,1.3,5.4h-6.4h-6.4C180.4,27.7,180.5,26.7,180.8,25.8z"></path>
					<path fill-rule="evenodd" d="M65.3,42.4h-3.2V26.7c0-2.1-0.3-3.9-0.9-5.4c-0.6-1.5-1.5-2.6-2.6-3.5c-1.1-0.9-2.5-1.5-4.1-1.9
						c-1.6-0.4-3.4-0.6-5.4-0.6c-0.6,0-1.2,0-1.7,0c-1.5,0.1-2.9,0.3-4.8,0.7c-2.5,0.5-4.6,1.1-6.5,1.9c1.1,4.3,2.1,5.7,4.6,5.2
						c0.1,0,0.1,0,0.2,0c0.6-0.1,1.1-0.2,1.7-0.3c1.8-0.3,3.4-0.4,4.9-0.5l0.4,0c2.5,0,3.1,0.5,3.9,1.4c0.8,1,1.2,2.4,1.2,4.2v0.8
						c-2,0.2-3.9,0.3-5.5,0.5c-5.4,0.5-8.7,0.9-11.2,3c-1.1,0.9-2,1.9-2.6,3.2c-0.6,1.3-0.9,2.8-0.9,4.5c0,0.9,0.1,2,0.4,3.1
						c0.3,1.1,0.8,2.2,1.6,3.1c0.8,1,1.8,1.8,3.1,2.4c1.3,0.6,3,1,5.1,1c1.9,0,3.4-0.3,4.5-0.7c1.1-0.4,1.9-0.8,2.4-1
						c1.2-0.5,2.3-1.3,3.5-2.3l0.1,0.1c0.2,1.7,0.7,2.7,1.7,3.2c1,0.5,2.2,0.7,3.6,0.7c1.4,0,2.9-0.2,4.3-0.5c1-0.2,1.9-0.5,2.7-0.8
						L65.3,42.4z M53,40.4c-1,0.8-3.4,2.5-5.5,2.9c-0.2,0-0.5,0.1-0.7,0.1c-1.7,0-2.9-0.4-3.6-1.1c-0.8-0.7-1.1-1.8-1.1-3.1
						c0-2.7,1.6-4.2,4.9-4.5l0.6,0l5.5-0.5V40.4z"></path>
					<path fill-rule="evenodd" d="M28.7,37.2c-0.5-1.4-1.1-2.6-1.9-3.6c-0.8-1-2.1-1.8-3.9-2.3v-0.1c1.3-0.5,2.3-1.3,3.1-2.3
						c0.8-1,1.4-2.3,1.8-3.6c0.5-1.6,0.9-3.1,1.4-4.7c0.4-1.5,0.8-3.1,1.2-4.6h-5.3c-3.5,0.2-3.9,1.2-4.7,3.6c0,0-1,3.2-1.4,4.5
						c-0.4,1.6-1.2,2.7-2.2,3.4c-1,0.7-2.2,1-3.6,1h-2.6V15.9H8.2c-5.7,0-6.9,0.7-6.9,3.7v29.2h4.9c3,0,4.4-0.1,4.4-2.3V34.3h2.8
						c1.4,0,2.7,0.3,3.8,0.8c1.1,0.6,2,1.8,2.6,3.7c0.6,1.7,1.1,3.4,1.6,5c0.1,0.4,0.3,0.9,0.4,1.3c1.2,3.6,1.4,3.6,4,3.6h6.5L28.7,37.2
						z"></path>
					<path fill-rule="evenodd" d="M70.2,15.9v32.9h5.1c3,0,4.4-0.1,4.4-2.3V23.3h6.1c5.7,0,6.9-0.7,6.9-3.7v-3.8H70.2z"></path>
					<path fill-rule="evenodd" d="M215,15.9c-4.9,0-6.4,0.5-6.7,2.5l-0.3,7.1c-0.7,9.9-1,12.8-4.8,15.6c-1.9,1.4-2.4,2.8,0.1,8.2
						c1.7-0.5,4.2-1.5,6-2.9c6-4.6,6.4-11.7,7.4-24h5.9v26.4h4.8c3,0,4.4-0.1,4.4-2.3V15.9H215z"></path>
					<path fill-rule="evenodd" d="M240.5,6.2c0.3,0,0.5-0.1,0.7-0.2c0.2-0.1,0.3-0.4,0.3-0.7c0-0.5-0.3-0.7-1-0.8v-1h0
						c0.6,0,1.1,0.1,1.6,0.4c0.4,0.3,0.7,0.7,0.7,1.3c0,0.5-0.1,0.8-0.4,1.1c-0.3,0.2-0.7,0.4-1.1,0.4l0.6,0.3l1.6,2.4h-1.3l-1.6-2.3
						l0,0V6.2L240.5,6.2z M240.5,12.4L240.5,12.4c0.9,0,1.6-0.1,2.3-0.4c0.7-0.3,1.3-0.6,1.8-1.1c0.5-0.5,0.9-1.1,1.3-1.8
						c0.3-0.7,0.5-1.5,0.5-2.5c0-0.9-0.1-1.8-0.4-2.5c-0.3-0.7-0.7-1.3-1.2-1.8c-0.5-0.5-1.1-0.9-1.8-1.1c-0.7-0.3-1.5-0.4-2.2-0.4
						l-0.1,0v1.3l0.1,0c0.6,0,1.2,0.1,1.7,0.3c0.5,0.2,1,0.5,1.4,0.8c0.4,0.4,0.7,0.8,1,1.4c0.2,0.6,0.3,1.2,0.3,2c0,0.8-0.1,1.4-0.3,2
						c-0.2,0.6-0.5,1-0.9,1.4c-0.4,0.4-0.9,0.6-1.4,0.8c-0.5,0.2-1.1,0.3-1.7,0.3l-0.1,0V12.4z M240.3,4.6c-0.2,0-0.3,0-0.5,0
						c-0.1,0-0.3,0-0.3,0.1v1.5h0.7c0.1,0,0.2,0,0.3,0v1l-1-0.3v2.6h-1.1V3.8c0.2-0.1,0.6-0.1,1-0.2c0.4,0,0.8-0.1,1.2-0.1v1
						C240.4,4.6,240.4,4.6,240.3,4.6L240.3,4.6z M240.5,0.9c-0.8,0-1.5,0.1-2.1,0.4c-0.7,0.3-1.3,0.6-1.8,1.1c-0.5,0.5-0.9,1.1-1.3,1.8
						c-0.3,0.7-0.5,1.5-0.5,2.5c0,0.9,0.2,1.7,0.5,2.5c0.3,0.7,0.7,1.3,1.2,1.8c0.5,0.5,1.1,0.9,1.8,1.1c0.7,0.2,1.4,0.4,2.2,0.4v-1.3
						c-0.6,0-1.1-0.1-1.6-0.3c-0.5-0.2-1-0.5-1.4-0.8c-0.4-0.4-0.7-0.8-0.9-1.4c-0.2-0.6-0.4-1.2-0.4-2s0.1-1.4,0.3-2
						c0.2-0.6,0.5-1,0.9-1.4c0.4-0.4,0.9-0.7,1.4-0.8c0.5-0.2,1.1-0.3,1.7-0.3V0.9z"></path>
					<polygon fill-rule="evenodd" fill="#6D6E71" points="6.7,62.2 3,62.2 3,69.5 1.8,69.5 1.8,61.3 8,61.3 8,69.5 6.7,69.5 	"></polygon>
					<path fill-rule="evenodd" fill="#6D6E71" d="M14.9,65.2c0.1,0,0.2,0,0.3,0c0.3,0,0.5-0.1,0.7-0.2c0.2-0.1,0.3-0.3,0.4-0.5
						c0.1-0.2,0.2-0.5,0.2-0.9c0-0.3-0.1-0.6-0.2-0.8c-0.1-0.2-0.3-0.3-0.5-0.4c-0.2-0.1-0.4-0.2-0.6-0.2c-0.1,0-0.2,0-0.3,0v-0.9
						c0.2,0,0.4,0,0.7,0c0.4,0,0.7,0.1,1,0.3c0.3,0.2,0.6,0.4,0.8,0.7c0.2,0.3,0.3,0.7,0.3,1.3c0,0.5-0.1,0.9-0.3,1.2
						c-0.2,0.3-0.5,0.6-0.8,0.8c-0.3,0.2-0.7,0.3-1,0.4c-0.2,0-0.5,0.1-0.7,0.1V65.2z M13.4,62.2v3h1.1c0.2,0,0.3,0,0.5,0V66
						c-0.2,0-0.3,0-0.5,0h-1.1v3.5h-1.2v-8.2h2.5c0.1,0,0.2,0,0.3,0v0.9c-0.1,0-0.2,0-0.3,0H13.4z"></path>
					<path fill-rule="evenodd" fill="#6D6E71" d="M24.7,68.8c0.4,0,0.7-0.1,1-0.2c0.3-0.2,0.5-0.4,0.6-0.7c0.1-0.3,0.2-0.7,0.3-1.1
						c0.1-0.4,0.1-0.9,0.1-1.4c0-0.5,0-1-0.1-1.4c0-0.4-0.1-0.8-0.3-1.1c-0.1-0.3-0.3-0.5-0.6-0.7c-0.3-0.2-0.6-0.3-1-0.3v-0.8
						c0.6,0,1.1,0.1,1.6,0.3c0.4,0.2,0.8,0.5,1,0.9c0.3,0.4,0.5,0.8,0.6,1.3c0.1,0.5,0.2,1.1,0.2,1.8s-0.1,1.2-0.2,1.8
						c-0.1,0.5-0.3,1-0.5,1.4c-0.3,0.4-0.6,0.7-1,0.9c-0.4,0.2-1,0.3-1.6,0.3V68.8z M24.7,62c-0.4,0-0.8,0.1-1,0.3
						c-0.3,0.2-0.5,0.4-0.6,0.7c-0.1,0.3-0.2,0.7-0.3,1.1c-0.1,0.4-0.1,0.9-0.1,1.4c0,0.5,0,1,0.1,1.4c0.1,0.4,0.2,0.8,0.3,1.1
						c0.1,0.3,0.3,0.5,0.6,0.7c0.3,0.2,0.6,0.2,1,0.2v0.8c-0.6,0-1.2-0.1-1.6-0.3c-0.4-0.2-0.8-0.5-1-0.9c-0.3-0.4-0.4-0.8-0.6-1.3
						c-0.1-0.5-0.2-1.1-0.2-1.8c0-0.7,0.1-1.2,0.2-1.8c0.1-0.5,0.3-1,0.6-1.3c0.3-0.4,0.6-0.7,1-0.9c0.4-0.2,0.9-0.3,1.6-0.3V62z"></path>
					<polygon fill-rule="evenodd" fill="#6D6E71" points="34.9,69.5 33.7,69.5 33.7,62.2 31.3,62.2 31.3,61.3 37.3,61.3 37.3,62.2 
						34.9,62.2 	"></polygon>
					<polygon fill-rule="evenodd" fill="#6D6E71" points="42.1,67.6 43.2,65.9 46,61.3 47.2,61.3 47.2,69.5 46,69.5 46,63.2 45.9,63.2 
						45.1,64.7 42.1,69.5 41,69.5 41,61.3 42.1,61.3 42.1,67.6 	"></polygon>
					<path fill-rule="evenodd" fill="#6D6E71" d="M56.1,67.2c0-0.3-0.1-0.5-0.2-0.7c-0.1-0.2-0.3-0.4-0.5-0.5c-0.2-0.1-0.4-0.2-0.7-0.3
						c-0.2,0-0.3-0.1-0.5-0.1v-0.9c0.4,0,0.7-0.1,1-0.3c0.4-0.2,0.5-0.6,0.5-1.1c0-0.2-0.1-0.4-0.2-0.6c-0.1-0.1-0.3-0.3-0.4-0.4
						c-0.2-0.1-0.4-0.2-0.6-0.2c-0.1,0-0.2,0-0.3,0v-0.9c0.3,0,0.7,0,1,0.1c0.3,0.1,0.6,0.2,0.9,0.4c0.3,0.2,0.5,0.4,0.6,0.6
						c0.2,0.2,0.2,0.5,0.2,0.9c0,0.4-0.1,0.8-0.4,1.2c-0.3,0.3-0.7,0.6-1.2,0.7v0c0.7,0.1,1.1,0.3,1.5,0.7c0.3,0.4,0.5,0.8,0.5,1.4
						c0,0.3-0.1,0.6-0.2,0.9c-0.1,0.3-0.3,0.5-0.6,0.7c-0.2,0.2-0.5,0.4-0.9,0.5c-0.3,0.1-0.7,0.2-1.1,0.2h-0.3v-0.9
						c0.2,0,0.4,0,0.5-0.1c0.3,0,0.5-0.1,0.7-0.2c0.2-0.1,0.3-0.3,0.4-0.5C56,67.7,56.1,67.4,56.1,67.2z M54.3,65.6c-0.1,0-0.2,0-0.3,0
						h-1.5v3.1H54c0.1,0,0.2,0,0.3,0v0.9h-3v-8.2h2.9l0.1,0v0.9c-0.1,0-0.2,0-0.3,0h-1.5v2.6h1.4c0.1,0,0.3,0,0.4,0V65.6z"></path>
					<path fill-rule="evenodd" fill="#6D6E71" d="M64.2,68.8c0.4,0,0.7-0.1,1-0.2c0.3-0.2,0.5-0.4,0.6-0.7c0.1-0.3,0.2-0.7,0.3-1.1
						c0.1-0.4,0.1-0.9,0.1-1.4c0-0.5,0-1-0.1-1.4c-0.1-0.4-0.1-0.8-0.3-1.1c-0.1-0.3-0.3-0.5-0.6-0.7C65,62,64.6,62,64.2,62v-0.8
						c0.6,0,1.1,0.1,1.6,0.3c0.4,0.2,0.8,0.5,1,0.9c0.3,0.4,0.5,0.8,0.6,1.3c0.1,0.5,0.2,1.1,0.2,1.8s-0.1,1.2-0.2,1.8
						c-0.1,0.5-0.3,1-0.5,1.4c-0.3,0.4-0.6,0.7-1,0.9c-0.4,0.2-1,0.3-1.6,0.3V68.8z M64.2,62c-0.4,0-0.8,0.1-1,0.3
						c-0.3,0.2-0.5,0.4-0.6,0.7c-0.1,0.3-0.2,0.7-0.3,1.1c0,0.4-0.1,0.9-0.1,1.4c0,0.5,0,1,0.1,1.4c0.1,0.4,0.2,0.8,0.3,1.1
						c0.1,0.3,0.3,0.5,0.6,0.7c0.3,0.2,0.6,0.2,1,0.2v0.8c-0.6,0-1.2-0.1-1.6-0.3c-0.4-0.2-0.8-0.5-1-0.9c-0.3-0.4-0.4-0.8-0.6-1.3
						c-0.1-0.5-0.2-1.1-0.2-1.8c0-0.7,0.1-1.2,0.2-1.8c0.1-0.5,0.3-1,0.6-1.3c0.3-0.4,0.6-0.7,1-0.9c0.4-0.2,0.9-0.3,1.6-0.3V62z"></path>
					<path fill-rule="evenodd" fill="#6D6E71" d="M76.3,67.2c0-0.3-0.1-0.5-0.2-0.7c-0.1-0.2-0.3-0.4-0.5-0.5c-0.2-0.1-0.4-0.2-0.7-0.3
						c-0.2,0-0.3-0.1-0.5-0.1v-0.9c0.4,0,0.7-0.1,1-0.3c0.4-0.2,0.5-0.6,0.5-1.1c0-0.2-0.1-0.4-0.2-0.6c-0.1-0.1-0.3-0.3-0.4-0.4
						c-0.2-0.1-0.4-0.2-0.6-0.2c-0.1,0-0.2,0-0.3,0v-0.9c0.3,0,0.7,0,1,0.1c0.3,0.1,0.6,0.2,0.9,0.4c0.3,0.2,0.5,0.4,0.6,0.6
						c0.2,0.2,0.2,0.5,0.2,0.9c0,0.4-0.1,0.8-0.4,1.2c-0.3,0.3-0.7,0.6-1.2,0.7v0c0.7,0.1,1.1,0.3,1.5,0.7c0.3,0.4,0.5,0.8,0.5,1.4
						c0,0.3-0.1,0.6-0.2,0.9c-0.1,0.3-0.3,0.5-0.6,0.7c-0.2,0.2-0.5,0.4-0.9,0.5c-0.3,0.1-0.7,0.2-1.1,0.2h-0.3v-0.9
						c0.2,0,0.4,0,0.5-0.1c0.3,0,0.5-0.1,0.7-0.2c0.2-0.1,0.3-0.3,0.4-0.5C76.2,67.7,76.3,67.4,76.3,67.2z M74.5,65.6
						c-0.1,0-0.2,0-0.3,0h-1.5v3.1h1.5c0.1,0,0.2,0,0.3,0v0.9h-3v-8.2h2.9l0.1,0v0.9c-0.1,0-0.2,0-0.3,0h-1.5v2.6h1.4c0.1,0,0.3,0,0.4,0
						V65.6z"></path>
					<polygon fill-rule="evenodd" fill="#6D6E71" points="82.6,67.6 83.6,65.9 86.5,61.3 87.6,61.3 87.6,69.5 86.5,69.5 86.5,63.2 
						86.4,63.2 85.5,64.7 82.6,69.5 81.4,69.5 81.4,61.3 82.6,61.3 82.6,67.6 	"></polygon>
					<path fill-rule="evenodd" fill="#6D6E71" d="M94.5,65.2c0.1,0,0.2,0,0.3,0c0.3,0,0.5-0.1,0.7-0.2c0.2-0.1,0.3-0.3,0.5-0.5
						c0.1-0.2,0.2-0.5,0.2-0.9c0-0.3-0.1-0.6-0.2-0.8c-0.1-0.2-0.3-0.3-0.5-0.4c-0.2-0.1-0.4-0.2-0.6-0.2c-0.1,0-0.2,0-0.3,0v-0.9
						c0.2,0,0.4,0,0.7,0c0.4,0,0.7,0.1,1,0.3c0.3,0.2,0.6,0.4,0.8,0.7c0.2,0.3,0.3,0.7,0.3,1.3c0,0.5-0.1,0.9-0.3,1.2
						c-0.2,0.3-0.5,0.6-0.8,0.8c-0.3,0.2-0.7,0.3-1,0.4C95,66,94.8,66,94.5,66V65.2z M93,62.2v3h1.1c0.2,0,0.3,0,0.5,0V66
						c-0.2,0-0.3,0-0.5,0H93v3.5h-1.2v-8.2h2.5c0.1,0,0.2,0,0.3,0v0.9c-0.1,0-0.2,0-0.3,0H93z"></path>
					<path fill-rule="evenodd" fill="#6D6E71" d="M105.8,61.3h1.3l-2.8,6.4c-0.2,0.4-0.4,0.7-0.5,1c-0.2,0.3-0.4,0.5-0.6,0.6
						c-0.2,0.1-0.5,0.2-0.8,0.3c-0.3,0.1-0.7,0.1-1.1,0.1l-0.1-0.8c0.3,0,0.5-0.1,0.7-0.1c0.2,0,0.4-0.1,0.5-0.2
						c0.1-0.1,0.3-0.2,0.4-0.3c0.1-0.1,0.2-0.3,0.3-0.5l0.1-0.3l-0.6-0.4l-2.3-5.7h1.3l1.6,4.3l0.4,1h0.1l0.4-1L105.8,61.3z"></path>
					<path fill-rule="evenodd" fill="#6D6E71" d="M114.8,69.5c-0.4,0.1-0.9,0.2-1.5,0.2c-0.6,0-1.2-0.1-1.6-0.3c-0.4-0.2-0.8-0.5-1-0.9
						c-0.3-0.4-0.5-0.8-0.6-1.3c-0.1-0.5-0.2-1.1-0.2-1.7c0-0.6,0.1-1.1,0.2-1.6c0.1-0.5,0.3-1,0.6-1.4c0.3-0.4,0.6-0.7,1.1-1
						c0.4-0.2,1-0.4,1.6-0.4c0.6,0,1.1,0.1,1.4,0.2c0.4,0.1,0.7,0.2,0.9,0.3l-0.4,0.7c-0.2-0.1-0.5-0.2-0.9-0.3c-0.3-0.1-0.7-0.1-1-0.1
						c-0.4,0-0.7,0.1-1,0.3c-0.3,0.2-0.5,0.4-0.7,0.7c-0.2,0.3-0.3,0.7-0.4,1.1c-0.1,0.4-0.1,0.8-0.1,1.3c0,1.1,0.2,2,0.5,2.6
						c0.3,0.6,0.8,0.9,1.6,0.9c0.4,0,0.8-0.1,1.1-0.2c0.3-0.1,0.6-0.2,0.9-0.4l0.5,0.6C115.6,69.1,115.2,69.3,114.8,69.5z"></path>
					<polygon fill-rule="evenodd" fill="#6D6E71" points="124.4,65.7 120.5,65.7 120.5,69.5 119.3,69.5 119.3,61.3 120.5,61.3 
						120.5,64.8 124.4,64.8 124.4,61.3 125.6,61.3 125.6,69.5 124.4,69.5 	"></polygon>
					<path fill-rule="evenodd" fill="#6D6E71" d="M132.8,68.8c0.4,0,0.7-0.1,1-0.2c0.3-0.2,0.5-0.4,0.6-0.7c0.1-0.3,0.2-0.7,0.3-1.1
						c0.1-0.4,0.1-0.9,0.1-1.4c0-0.5,0-1-0.1-1.4c-0.1-0.4-0.1-0.8-0.3-1.1c-0.1-0.3-0.3-0.5-0.6-0.7c-0.3-0.2-0.6-0.3-1-0.3v-0.8
						c0.6,0,1.1,0.1,1.6,0.3c0.4,0.2,0.8,0.5,1,0.9c0.3,0.4,0.5,0.8,0.6,1.3c0.1,0.5,0.2,1.1,0.2,1.8s-0.1,1.2-0.2,1.8
						c-0.1,0.5-0.3,1-0.5,1.4c-0.3,0.4-0.6,0.7-1,0.9c-0.4,0.2-1,0.3-1.6,0.3V68.8z M132.8,62c-0.4,0-0.8,0.1-1,0.3
						c-0.3,0.2-0.5,0.4-0.6,0.7c-0.1,0.3-0.2,0.7-0.3,1.1c0,0.4-0.1,0.9-0.1,1.4c0,0.5,0,1,0.1,1.4c0.1,0.4,0.2,0.8,0.3,1.1
						c0.1,0.3,0.3,0.5,0.6,0.7c0.3,0.2,0.6,0.2,1,0.2v0.8c-0.6,0-1.2-0.1-1.6-0.3c-0.4-0.2-0.8-0.5-1-0.9c-0.3-0.4-0.4-0.8-0.6-1.3
						c-0.1-0.5-0.2-1.1-0.2-1.8c0-0.7,0.1-1.2,0.2-1.8c0.1-0.5,0.3-1,0.6-1.3c0.3-0.4,0.6-0.7,1-0.9c0.4-0.2,0.9-0.3,1.5-0.3V62z"></path>
					<polygon fill-rule="evenodd" fill="#6D6E71" points="140.1,61.3 145.3,61.3 145.3,62.2 141.3,62.2 141.3,64.8 144.8,64.8 
						144.8,65.6 141.3,65.6 141.3,68.6 145.3,68.6 145.3,69.5 140.1,69.5 	"></polygon>
					<path fill-rule="evenodd" fill="#6D6E71" d="M159.8,69.5c-0.4,0.1-0.9,0.2-1.5,0.2c-0.6,0-1.2-0.1-1.6-0.3c-0.4-0.2-0.8-0.5-1-0.9
						c-0.3-0.4-0.5-0.8-0.6-1.3c-0.1-0.5-0.2-1.1-0.2-1.7c0-0.6,0.1-1.1,0.2-1.6c0.1-0.5,0.3-1,0.6-1.4c0.3-0.4,0.6-0.7,1.1-1
						c0.4-0.2,1-0.4,1.6-0.4c0.6,0,1.1,0.1,1.4,0.2c0.4,0.1,0.7,0.2,0.9,0.3l-0.4,0.7c-0.2-0.1-0.5-0.2-0.9-0.3c-0.3-0.1-0.7-0.1-1-0.1
						c-0.4,0-0.7,0.1-1,0.3c-0.3,0.2-0.5,0.4-0.6,0.7c-0.2,0.3-0.3,0.7-0.4,1.1c-0.1,0.4-0.1,0.8-0.1,1.3c0,1.1,0.2,2,0.5,2.6
						c0.3,0.6,0.8,0.9,1.6,0.9c0.4,0,0.8-0.1,1.1-0.2c0.3-0.1,0.6-0.2,0.9-0.4l0.5,0.6C160.6,69.1,160.2,69.3,159.8,69.5z"></path>
					<path fill-rule="evenodd" fill="#6D6E71" d="M167.2,65.2c0.1,0,0.2,0,0.3,0c0.3,0,0.5-0.1,0.7-0.2c0.2-0.1,0.3-0.3,0.5-0.5
						c0.1-0.2,0.2-0.5,0.2-0.9c0-0.3-0.1-0.6-0.2-0.8c-0.1-0.2-0.3-0.3-0.5-0.4c-0.2-0.1-0.4-0.2-0.6-0.2c-0.1,0-0.2,0-0.3,0v-0.9
						c0.2,0,0.4,0,0.7,0c0.4,0,0.7,0.1,1,0.3c0.3,0.2,0.6,0.4,0.8,0.7c0.2,0.3,0.3,0.7,0.3,1.3c0,0.5-0.1,0.9-0.3,1.2
						c-0.2,0.3-0.5,0.6-0.8,0.8c-0.3,0.2-0.7,0.3-1,0.4c-0.2,0-0.5,0.1-0.7,0.1V65.2z M165.6,62.2v3h1.1c0.2,0,0.3,0,0.5,0V66
						c-0.2,0-0.3,0-0.5,0h-1.1v3.5h-1.2v-8.2h2.5c0.1,0,0.2,0,0.3,0v0.9c-0.1,0-0.2,0-0.3,0H165.6z"></path>
					<polygon fill-rule="evenodd" fill="#6D6E71" points="173.9,61.3 179.1,61.3 179.1,62.2 175.1,62.2 175.1,64.8 178.6,64.8 
						178.6,65.6 175.1,65.6 175.1,68.6 179.1,68.6 179.1,69.5 173.9,69.5 	"></polygon>
					<path fill-rule="evenodd" fill="#6D6E71" d="M186.5,68.6h2.1v-6.5h-2.1v-0.9h3.3v7.3l0.7,0l0,2.7l-1.2,0l0-1.9h-2.8V68.6z
						 M185.5,62.2l-0.1,2.6c0,0.5-0.1,1-0.1,1.4c0,0.4-0.1,0.8-0.1,1.1c-0.1,0.3-0.1,0.6-0.2,0.8c-0.1,0.2-0.2,0.4-0.4,0.6h2.1v0.9h-3.1
						l0,1.9l-1.2,0l0-2.7l0.6,0c0.2-0.1,0.4-0.3,0.6-0.5c0.2-0.2,0.3-0.4,0.4-0.7c0.1-0.3,0.2-0.7,0.2-1.1c0.1-0.4,0.1-1,0.1-1.6
						l0.2-3.4h2.2v0.9H185.5z"></path>
					<polygon fill-rule="evenodd" fill="#6D6E71" points="206.5,69.5 205.2,69.5 205.2,62.2 202.8,62.2 202.8,61.3 208.9,61.3 
						208.9,62.2 206.5,62.2 	"></polygon>
					<path fill-rule="evenodd" fill="#6D6E71" d="M217.3,67.2c0-0.3-0.1-0.5-0.2-0.7c-0.1-0.2-0.3-0.4-0.5-0.5c-0.2-0.1-0.4-0.2-0.7-0.3
						c-0.2,0-0.3-0.1-0.5-0.1v-0.9c0.4,0,0.7-0.1,1-0.3c0.4-0.2,0.5-0.6,0.5-1.1c0-0.2-0.1-0.4-0.2-0.6c-0.1-0.1-0.3-0.3-0.4-0.4
						c-0.2-0.1-0.4-0.2-0.6-0.2c-0.1,0-0.2,0-0.3,0v-0.9c0.3,0,0.7,0,1,0.1c0.3,0.1,0.6,0.2,0.9,0.4c0.3,0.2,0.5,0.4,0.6,0.6
						c0.2,0.2,0.2,0.5,0.2,0.9c0,0.4-0.1,0.8-0.4,1.2c-0.3,0.3-0.7,0.6-1.2,0.7v0c0.7,0.1,1.1,0.3,1.5,0.7c0.3,0.4,0.5,0.8,0.5,1.4
						c0,0.3-0.1,0.6-0.2,0.9c-0.1,0.3-0.3,0.5-0.6,0.7c-0.2,0.2-0.5,0.4-0.9,0.5c-0.3,0.1-0.7,0.2-1.1,0.2h-0.3v-0.9
						c0.2,0,0.4,0,0.5-0.1c0.3,0,0.5-0.1,0.7-0.2c0.2-0.1,0.3-0.3,0.4-0.5C217.2,67.7,217.3,67.4,217.3,67.2z M215.5,65.6
						c-0.1,0-0.2,0-0.3,0h-1.5v3.1h1.5c0.1,0,0.2,0,0.3,0v0.9h-3v-8.2h2.9l0.1,0v0.9c-0.1,0-0.2,0-0.3,0h-1.5v2.6h1.4c0.1,0,0.3,0,0.4,0
						V65.6z"></path>
					<path fill-rule="evenodd" fill="#6D6E71" d="M225.4,62L225.4,62l0-0.8h0c0.6,0,1.1,0.1,1.6,0.3c0.4,0.2,0.8,0.5,1,0.9
						c0.3,0.4,0.5,0.8,0.6,1.3c0.1,0.5,0.2,1.1,0.2,1.8s-0.1,1.2-0.2,1.8c-0.1,0.5-0.3,1-0.5,1.4c-0.3,0.4-0.6,0.7-1,0.9
						c-0.4,0.2-1,0.3-1.6,0.3h0v-0.8h0c0.4,0,0.7-0.1,1-0.2c0.3-0.2,0.5-0.4,0.6-0.7c0.1-0.3,0.2-0.7,0.3-1.1c0.1-0.4,0.1-0.9,0.1-1.4
						c0-0.5,0-1-0.1-1.4c0-0.4-0.1-0.8-0.3-1.1c-0.1-0.3-0.3-0.5-0.6-0.7C226.2,62,225.8,62,225.4,62z M225.4,62c-0.4,0-0.8,0.1-1,0.3
						c-0.3,0.2-0.5,0.4-0.6,0.7c-0.1,0.3-0.2,0.7-0.3,1.1c0,0.4-0.1,0.9-0.1,1.4c0,0.5,0,1,0.1,1.4c0.1,0.4,0.2,0.8,0.3,1.1
						c0.1,0.3,0.3,0.5,0.6,0.7c0.3,0.2,0.6,0.2,1,0.2v0.8c-0.6,0-1.2-0.1-1.6-0.3c-0.4-0.2-0.8-0.5-1-0.9c-0.3-0.4-0.4-0.8-0.6-1.3
						c-0.1-0.5-0.2-1.1-0.2-1.8c0-0.7,0.1-1.2,0.2-1.8c0.1-0.5,0.3-1,0.6-1.3c0.3-0.4,0.6-0.7,1-0.9c0.4-0.2,0.9-0.3,1.5-0.3V62z"></path>
					<path fill-rule="evenodd" fill="#6D6E71" d="M199,69.5c-0.4,0.1-0.9,0.2-1.5,0.2c-0.6,0-1.2-0.1-1.6-0.3c-0.4-0.2-0.8-0.5-1.1-0.9
						c-0.3-0.4-0.5-0.8-0.6-1.3c-0.1-0.5-0.2-1.1-0.2-1.7c0-0.6,0.1-1.1,0.2-1.6c0.1-0.5,0.3-1,0.6-1.4c0.3-0.4,0.6-0.7,1.1-1
						c0.4-0.2,1-0.4,1.6-0.4c0.6,0,1.1,0.1,1.4,0.2c0.4,0.1,0.7,0.2,0.9,0.3l-0.4,0.7c-0.2-0.1-0.5-0.2-0.9-0.3c-0.3-0.1-0.7-0.1-1-0.1
						c-0.4,0-0.7,0.1-1,0.3c-0.3,0.2-0.5,0.4-0.7,0.7c-0.2,0.3-0.3,0.7-0.4,1.1c-0.1,0.4-0.1,0.8-0.1,1.3c0,1.1,0.2,2,0.5,2.6
						c0.3,0.6,0.9,0.9,1.6,0.9c0.4,0,0.8-0.1,1.1-0.2c0.3-0.1,0.6-0.2,0.9-0.4l0.5,0.6C199.8,69.1,199.4,69.3,199,69.5z"></path>
				</g>
			</svg>